<svg xmlns="http://www.w3.org/2000/svg" width="634" height="592.969" viewBox="0 0 634 592.969">
  <defs>
    <style>
      .cls-1 {
        fill: #fff;
        fill-rule: evenodd;
      }
    </style>
  </defs>
  <path id="Фигура_1" data-name="Фигура 1" class="cls-1" d="M814.285,486.543L456.851,223.3a31.607,31.607,0,0,0-33.808-2.511,33.423,33.423,0,0,0-17.649,29.72l0.033,162.905H286.879c-10.641,0-19.268,9.648-19.268,21.555s8.627,21.561,19.268,21.561H405.436L405.442,491H213.266C202.625,491,194,500.648,194,512.554s8.625,21.562,19.266,21.562H405.45l0.008,35.591H286.879c-10.641,0-19.268,9.655-19.268,21.562s8.627,21.554,19.268,21.554H405.467L405.5,776.559a33.565,33.565,0,0,0,17.65,29.726A31.364,31.364,0,0,0,438.034,810a31.708,31.708,0,0,0,18.924-6.232L814.392,541.076A33.711,33.711,0,0,0,828,513.976,34.566,34.566,0,0,0,814.285,486.543ZM472.237,714.031V612.823h64.394c10.641,0,19.267-9.648,19.267-21.554s-8.626-21.562-19.267-21.562H472.056l-0.225-35.591H599.726c10.642,0,19.267-9.655,19.267-21.562S610.368,491,599.726,491H471.561l-0.216-34.469h65.286c10.641,0,19.267-9.654,19.267-21.561s-8.626-21.555-19.267-21.555H471.075L470.46,315.31,739.547,513.425Z" transform="translate(-194 -217.031)"/>
</svg>
