<svg xmlns="http://www.w3.org/2000/svg" preserveAspectRatio="xMidYMid" width="14.188" height="27" viewBox="0 0 14.188 27"><defs><style>.cls-1 { fill: #fff; fill-rule: evenodd; }</style></defs><path d="M13.66.005L10.257 0C6.43 0 3.96 2.606 3.96 6.644v3.063H.534c-.295 0-.535.247-.535.55v4.44c0 .304.24.55.535.55H3.96V26.45c0 .304.238.55.534.55H8.96c.296 0 .536-.247.536-.55v-11.2h4.002c.296 0 .536-.248.536-.552v-4.44c0-.145-.055-.285-.155-.388-.102-.104-.238-.162-.38-.162H9.496V7.11c0-1.247.29-1.88 1.87-1.88l2.294-.002c.296 0 .535-.246.535-.55V.556c0-.304-.24-.55-.534-.55z" class="cls-1"/></svg>