<svg xmlns="http://www.w3.org/2000/svg" preserveAspectRatio="xMidYMid" width="23.03" height="23.56" viewBox="0 0 23.03 23.56"><defs><style>.cls-1 { fill: #fff; fill-rule: evenodd; }</style></defs><path d="M20.35 5.633c0 .82-.65 1.486-1.452 1.486h-1.38c-.804 0-1.455-.667-1.455-1.487V4.22c0-.82.65-1.485 1.454-1.485h1.38c.803 0 1.454.665 1.454 1.485v1.413zm0 13.698c0 .82-.746 1.488-1.55 1.488H4.27c-.803 0-1.606-.667-1.606-1.487V11.9c0-.82.803-1.494 1.606-1.494h.822c.057 0 .11.006.16.015.307.06.504.287.525.578.004.05.002.1-.005.15-.005.035.076.072.072.106-.024.212.036.427.036.646 0 3.245 2.467 5.88 5.627 5.938-.035 0-.11.006-.145.006.035 0 .05-.005.087-.006.034 0 .06.006.096.006 3.21 0 5.806-2.662 5.807-5.943 0-.217-.02-.434-.045-.645-.004-.036-.003-.073-.007-.107-.006-.05-.01-.1-.005-.15.02-.29.217-.518.523-.577.05-.008.104-.014.162-.014h.82c.804 0 1.55.675 1.55 1.496v7.43zM8.63 11.9s.23-2.97 2.906-2.97c2.675 0 2.905 2.97 2.905 2.97s.086 2.973-2.904 2.973c-2.99 0-2.907-2.972-2.907-2.972zM20.123-.004H2.89c-1.604 0-2.905 1.33-2.905 2.97v17.62c0 1.64 1.3 2.972 2.906 2.972h17.234c1.605 0 2.906-1.33 2.906-2.97V2.966c0-1.64-1.3-2.972-2.906-2.972" class="cls-1"/></svg>