<svg xmlns="http://www.w3.org/2000/svg" preserveAspectRatio="xMidYMid" width="27" height="22" viewBox="0 0 27 22"><defs><style>.cls-1 { fill: #fff; fill-rule: evenodd; }</style></defs><path d="M26.255.407c-1.07.636-2.257 1.098-3.52 1.348C21.726.673 20.288 0 18.696 0c-3.06 0-5.54 2.488-5.54 5.554 0 .435.048.86.142 1.266C8.694 6.588 4.613 4.376 1.88 1.015c-.476.82-.748 1.774-.748 2.793 0 1.928.98 3.628 2.463 4.623-.907-.03-1.76-.28-2.508-.697v.07c0 2.69 1.91 4.936 4.442 5.448-.465.126-.954.196-1.46.196-.358 0-.703-.036-1.043-.1.705 2.205 2.75 3.812 5.173 3.858-1.895 1.49-4.284 2.377-6.878 2.377-.448 0-.888-.026-1.322-.076C2.452 21.08 5.362 22 8.49 22c10.19 0 15.76-8.465 15.76-15.806l-.018-.72c1.086-.78 2.026-1.758 2.768-2.87-.994.44-2.06.74-3.18.874 1.143-.688 2.02-1.777 2.435-3.07z" class="cls-1"/></svg>